<?xml version="1.0" standalone="no"?>
<!DOCTYPE svg PUBLIC "-//W3C//DTD SVG 20010904//EN"
 "http://www.w3.org/TR/2001/REC-SVG-20010904/DTD/svg10.dtd">
<svg version="1.0" xmlns="http://www.w3.org/2000/svg"
 width="512.000000pt" height="512.000000pt" viewBox="0 0 512.000000 512.000000"
 preserveAspectRatio="xMidYMid meet">
<metadata>
Created by potrace 1.14, written by Peter Selinger 2001-2017
</metadata>
<g transform="translate(0.000000,512.000000) scale(0.100000,-0.100000)"
fill="#000000" stroke="none">
<path d="M2369 5116 c-2 -2 -33 -7 -69 -10 -73 -7 -123 -14 -160 -21 -14 -3
-41 -8 -60 -11 -19 -3 -71 -15 -115 -26 -44 -11 -87 -21 -95 -23 -8 -2 -53
-16 -100 -31 -47 -15 -87 -29 -90 -29 -3 -1 -16 -6 -30 -12 -14 -6 -49 -20
-77 -32 -74 -29 -267 -124 -271 -133 -2 -5 -8 -8 -13 -8 -18 0 -240 -152 -337
-230 -125 -100 -283 -258 -384 -384 -110 -136 -180 -243 -282 -430 -49 -89
-150 -336 -162 -395 -3 -14 -8 -29 -12 -35 -3 -6 -7 -15 -8 -21 -1 -5 -9 -35
-18 -65 -14 -51 -18 -67 -31 -137 -3 -16 -8 -39 -10 -53 -3 -14 -8 -37 -10
-52 -3 -16 -7 -40 -10 -55 -31 -175 -26 -595 9 -778 31 -162 58 -278 77 -325
5 -14 11 -34 14 -45 2 -11 17 -56 34 -101 197 -540 596 -1020 1091 -1312 138
-82 380 -196 460 -217 8 -3 65 -20 126 -39 61 -19 124 -37 140 -40 61 -11 90
-16 112 -22 13 -2 43 -7 65 -10 23 -3 48 -7 55 -10 34 -11 183 -19 357 -19
218 0 308 8 465 40 14 2 36 7 50 9 14 2 54 12 90 21 36 8 73 18 83 20 41 9
265 89 297 105 19 10 38 18 43 18 35 3 335 174 456 260 281 199 566 515 731
807 28 50 124 238 125 245 0 3 20 55 44 115 23 61 45 119 47 130 2 11 8 31 13
45 9 22 36 122 47 175 10 45 25 122 30 154 3 18 8 43 10 55 19 97 26 491 11
621 -16 131 -13 114 -37 235 -6 30 -14 66 -16 80 -25 129 -149 469 -212 582
-10 18 -36 65 -57 103 -201 363 -535 704 -909 930 -152 91 -443 224 -529 240
-9 2 -22 7 -27 10 -5 3 -19 8 -30 11 -11 2 -30 6 -41 9 -12 2 -36 9 -53 14
-17 6 -42 12 -56 15 -36 7 -131 25 -160 31 -14 3 -45 8 -70 11 -25 3 -56 7
-70 10 -28 6 -466 15 -471 10z"/>
</g>
</svg>
